<svg xmlns="http://www.w3.org/2000/svg" width="64" height="64" fill="none" id="calculator"><path fill="#C4C4C4" d="M8 13.333A5.333 5.333 0 0 1 13.333 8h17.334v22.667H8V13.333Z"></path><path fill="#445CDA" fill-rule="evenodd" d="M19.333 13.333c.737 0 1.334.597 1.334 1.333V24A1.333 1.333 0 0 1 18 24v-9.334c0-.736.597-1.333 1.333-1.333Z" clip-rule="evenodd"></path><path fill="#445CDA" fill-rule="evenodd" d="M13.333 19.333c0-.737.597-1.334 1.334-1.334H24a1.333 1.333 0 0 1 0 2.667h-9.333a1.333 1.333 0 0 1-1.334-1.333Z" clip-rule="evenodd"></path><path fill="#D0D2E0" d="M8 13.333A5.333 5.333 0 0 1 13.333 8H32v24H8V13.333Z"></path><path fill="#2B3151" fill-rule="evenodd" d="M20 14c.736 0 1.333.597 1.333 1.333v9.334a1.333 1.333 0 0 1-2.666 0v-9.334c0-.736.597-1.333 1.333-1.333Z" clip-rule="evenodd"></path><path fill="#2B3151" fill-rule="evenodd" d="M14 20c0-.737.597-1.334 1.333-1.334h9.334a1.333 1.333 0 0 1 0 2.667h-9.334A1.333 1.333 0 0 1 14 20Z" clip-rule="evenodd"></path><path fill="#D0D2E0" d="M56 50.667A5.333 5.333 0 0 1 50.667 56H32V32h24v18.667Z"></path><path fill="#2B3151" fill-rule="evenodd" d="M50 41.333c0 .737-.597 1.334-1.333 1.334h-9.334a1.333 1.333 0 0 1 0-2.667h9.334c.736 0 1.333.597 1.333 1.333zm0 5.333c0 .737-.597 1.334-1.333 1.334h-9.334a1.333 1.333 0 0 1 0-2.667h9.334c.736 0 1.333.597 1.333 1.333z" clip-rule="evenodd"></path><path fill="#959AB4" d="M8 50.667A5.333 5.333 0 0 0 13.333 56H32V32H8v18.667Z"></path><path fill="#2B3151" fill-rule="evenodd" d="M15.757 48.243c.521.52 1.365.52 1.886 0l6.6-6.6a1.333 1.333 0 0 0-1.886-1.886l-6.6 6.6c-.52.52-.52 1.365 0 1.886Z" clip-rule="evenodd"></path><path fill="#2B3151" fill-rule="evenodd" d="M15.757 39.757c-.52.521-.52 1.365 0 1.886l6.6 6.6a1.333 1.333 0 0 0 1.886-1.886l-6.6-6.6a1.333 1.333 0 0 0-1.886 0Z" clip-rule="evenodd"></path><path fill="#959AB4" d="M56 13.333A5.333 5.333 0 0 0 50.667 8H32v24h24V13.333Z"></path><path fill="#2B3151" fill-rule="evenodd" d="M50 20c0-.736-.597-1.333-1.333-1.333h-9.334a1.333 1.333 0 0 0 0 2.667h9.334c.736 0 1.333-.597 1.333-1.333Z" clip-rule="evenodd"></path></svg>