<svg xmlns="http://www.w3.org/2000/svg" data-name="Layer 1" viewBox="0 0 512 512" id="set-square"><path fill="#00efd1" d="M472.04,39.86l.58,431.7-433.24.58ZM378.09,381.31l.28-123.89L254.75,381.03Z"></path><path fill="#083863" d="M475.1,32.467a8,8,0,0,0-8.712,1.734L33.726,466.481A7.9,7.9,0,0,0,39.38,480h.011l433.24-.51a7.94,7.94,0,0,0,7.989-7.958L480.04,39.84A7.988,7.988,0,0,0,475.1,32.467ZM58.732,464.114l58.475-58.424,7.556,7.557a8,8,0,1,0,11.314-11.314l-7.552-7.551,27.26-27.236,16.439,16.432a8,8,0,0,0,11.312-11.316L167.1,355.837l27.377-27.353L202,336.007a8,8,0,1,0,11.314-11.314l-7.518-7.517,30.86-30.833,16.4,16.4a8,8,0,1,0,11.314-11.314l-16.4-16.4,31.24-31.212,6.665,6.665A8,8,0,0,0,297.2,239.173l-6.661-6.66L321.4,201.68l16.367,16.367a8,8,0,0,0,11.314-11.314l-16.362-16.362,27.376-27.352,6.62,6.626a8,8,0,0,0,11.318-11.309l-6.619-6.625,27.259-27.236,16.323,16.331a8,8,0,0,0,11.316-11.312l-16.32-16.328,54.078-54.03.543,404.435Z"></path><path fill="#083863" d="M381.44,250.032a8.007,8.007,0,0,0-8.727,1.731l-123.62,123.61a8,8,0,0,0-1.738,8.71,7.863,7.863,0,0,0,7.377,4.792l123.34.125h.018a7.742,7.742,0,0,0,8-7.749l.28-123.852A7.948,7.948,0,0,0,381.44,250.032Zm-11.332,123.26-96.087-.218,96.305-96.3Z"></path></svg>