<svg xmlns="http://www.w3.org/2000/svg" viewBox="0 0 25 25" id="statistics"><g data-name="Presentation 03"><rect width="8" height="11" x="4.5" y="3.5" fill="#74e8d5"></rect><rect width="8" height="11" x="12.5" y="3.5" fill="#fff"></rect><path fill="#172f35" d="M4.5 15a.5.5 0 0 1-.5-.5V3.5a.5.5 0 0 1 1 0v11A.5.5 0 0 1 4.5 15zM20.5 15a.5.5 0 0 1-.5-.5V3.5a.5.5 0 0 1 1 0v11A.5.5 0 0 1 20.5 15z"></path><path fill="#172f35" d="M21.5 4H3.5a.5.5 0 0 1 0-1h18a.5.5 0 0 1 0 1zM21.5 15H3.5a.5.5 0 0 1 0-1h18a.5.5 0 0 1 0 1z"></path><path fill="#172f35" d="M12.5,22a.5.5,0,0,1-.5-.5v-7a.5.5,0,0,1,1,0v7A.5.5,0,0,1,12.5,22Z"></path><path fill="#172f35" d="M16.5 22a.51.51 0 0 1-.4-.2l-3-4a.5.5 0 0 1 .8-.6l3 4a.5.5 0 0 1-.1.7A.49.49 0 0 1 16.5 22zM8.5 22a.49.49 0 0 1-.3-.1.5.5 0 0 1-.1-.7l3-4a.51.51 0 0 1 .7-.1.5.5 0 0 1 .1.7l-3 4A.51.51 0 0 1 8.5 22z"></path><path fill="#172f35" d="M13.5 18h-2a.5.5 0 0 1 0-1h2a.5.5 0 0 1 0 1zM9.5 11a.47.47 0 0 1-.35-.15.48.48 0 0 1 0-.7l2-2a.49.49 0 0 1 .57-.1l1.68.84 1.75-1.74a.49.49 0 0 1 .7.7l-2 2a.49.49 0 0 1-.57.1L11.6 9.11 9.85 10.85A.47.47 0 0 1 9.5 11z"></path></g></svg>